<svg width="12.000000" height="12.000000" viewBox="0 0 12 12" fill="none" xmlns="http://www.w3.org/2000/svg" xmlns:xlink="http://www.w3.org/1999/xlink">
    <desc>
        Created with Pixso.
    </desc>
    <defs/>
    <path id="Vector" d="M7.42 6L11.7 1.72C12.09 1.32 12.09 0.68 11.7 0.29C11.31 -0.1 10.67 -0.1 10.27 0.29L5.99 4.57L1.72 0.29C1.32 -0.1 0.68 -0.1 0.29 0.29C-0.1 0.68 -0.1 1.32 0.29 1.72L4.57 6L0.29 10.27C-0.1 10.67 -0.1 11.31 0.29 11.7C0.68 12.09 1.32 12.09 1.72 11.7L5.99 7.42L10.27 11.7C10.67 12.09 11.31 12.09 11.7 11.7C12.09 11.31 12.09 10.67 11.7 10.27L7.42 6Z" fill="#292929" fill-opacity="1.000000" fill-rule="evenodd"/>
</svg>
